<?xml version="1.0" encoding="UTF-8"?>
<svg width="182px" height="52px" viewBox="0 0 182 52" version="1.1" xmlns="http://www.w3.org/2000/svg" xmlns:xlink="http://www.w3.org/1999/xlink">
    <title>CI-F - RGB_E</title>
    <g id="Symbols" stroke="none" stroke-width="1" fill="none" fill-rule="evenodd">
        <g id="Navigation/Desktop/White" transform="translate(-120.000000, -24.000000)" fill-rule="nonzero">
            <g id="CI-F---RGB_E" transform="translate(120.000000, 24.000000)">
                <polygon id="Path" fill="#4D4E4E" points="63.6734694 20.8563099 63.6734694 24.7763432 68.5247813 24.7763432 68.5247813 27.3860891 63.6734694 27.3860891 63.6734694 33.9266972 60.608913 33.9266972 60.608913 18.2790504 69.4885464 18.2790504 69.4885464 20.8563099"></polygon>
                <rect id="Rectangle" fill="#4D4E4E" x="72.7696793" y="18.2790504" width="3.08621408" height="15.6476468"></rect>
                <path d="M93.4960433,34.1757601 L86.7496876,26.8229904 C85.6668055,25.6209913 84.4431487,24.1915868 83.5010412,23.0437318 L83.4468971,23.0437318 C83.5010412,24.3215327 83.5010412,25.5668471 83.5010412,26.6497293 L83.5010412,33.9158684 L80.4798001,33.9158684 L80.4798001,18.2898792 L82.8404831,18.2898792 L88.8721366,24.8846314 C89.7059559,25.7942524 90.9837568,27.212828 91.817576,28.2632237 L91.817576,28.2632237 C91.817576,27.1803415 91.817576,26.0108288 91.817576,24.9496043 L91.817576,18.3115369 L94.8388172,18.3115369 L94.8388172,34.1974177 L93.4960433,34.1757601 Z" id="Path" fill="#4D4E4E"></path>
                <path d="M105.396918,24.364848 C105.223657,23.8992087 104.996252,23.2819658 104.833819,22.6755519 L104.779675,22.6755519 C104.628072,23.2603082 104.389838,23.8992087 104.216576,24.364848 L102.917118,27.7217826 L106.66389,27.7217826 L105.396918,24.364848 Z M109.078717,33.937526 L107.573511,30.1582674 L102.061641,30.1582674 L100.567264,33.937526 L97.5893378,33.937526 L104.021658,18.1166181 L105.765098,18.1166181 L112.164931,33.937526 L109.078717,33.937526 Z" id="Shape" fill="#4D4E4E"></path>
                <path d="M127.985839,34.1757601 L121.239484,26.8229904 C120.156601,25.6209913 118.932945,24.1915868 117.990837,23.0437318 L117.936693,23.0437318 C117.990837,24.3215327 117.990837,25.5668471 117.990837,26.6497293 L117.990837,33.9158684 L114.969596,33.9158684 L114.969596,18.2898792 L117.351937,18.2898792 L123.38359,24.8846314 C124.217409,25.7942524 125.549354,27.212828 126.32903,28.2632237 L126.32903,28.2632237 C126.32903,27.1803415 126.32903,26.0108288 126.32903,24.9496043 L126.32903,18.3115369 L129.339442,18.3115369 L129.339442,34.1974177 L127.985839,34.1757601 Z" id="Path" fill="#4D4E4E"></path>
                <path d="M144.857143,21.7442732 C143.764953,21.1340063 142.534753,20.813409 141.283632,20.8129946 C139.820916,20.728341 138.389123,21.2572826 137.332747,22.2725537 C136.276372,23.2878247 135.691052,24.6975098 135.717618,26.1624323 C135.717618,29.5626822 138.35985,31.5010412 141.381091,31.5010412 C142.636794,31.5521916 143.884947,31.2839318 145.008746,30.7213661 L144.738026,33.4394002 C143.539882,33.9529131 142.238254,34.179122 140.93711,34.0999584 C136.962932,34.0999584 132.598917,31.3819242 132.598917,26.1082882 C132.598917,20.8346522 137.017076,18.0841316 140.93711,18.0841316 C142.494233,18.0283209 144.040171,18.3673099 145.43107,19.0695544 L144.857143,21.7442732 Z" id="Path" fill="#4D4E4E"></path>
                <rect id="Rectangle" fill="#4D4E4E" x="148.961266" y="18.2790504" width="3.08621408" height="15.6476468"></rect>
                <path d="M162.88713,24.364848 C162.713869,23.8992087 162.497293,23.2819658 162.324032,22.6755519 L162.324032,22.6755519 C162.172428,23.2603082 161.923365,23.8992087 161.760933,24.364848 L160.461474,27.7217826 L164.229904,27.7217826 L162.88713,24.364848 Z M166.56893,33.937526 L165.074552,30.1582674 L159.551853,30.1582674 L158.057476,33.937526 L155.090379,33.937526 L161.51187,18.1166181 L163.25531,18.1166181 L169.655144,33.937526 L166.56893,33.937526 Z" id="Shape" fill="#4D4E4E"></path>
                <polygon id="Path" fill="#4D4E4E" points="172.427322 18.2790504 172.427322 33.9266972 181.924198 33.9266972 181.924198 31.3494377 175.524365 31.3494377 175.524365 18.2790504"></polygon>
                <path d="M2.70720533,2.69637651 L49.271137,2.69637651 L49.271137,49.2603082 L2.70720533,49.2603082 L2.70720533,2.69637651 Z M0,51.9891712 L51.9783424,51.9891712 L51.9783424,0.0108288213 L0,0.0108288213 L0,51.9891712 Z" id="Shape" fill="#647692"></path>
                <rect id="Rectangle" fill="#647692" x="36.6772178" y="12.6372345" width="4.90545606" height="26.8987922"></rect>
                <path d="M27.7109538,33.1470221 L27.7109538,33.1470221 C26.3155153,34.1223014 24.6485654,34.633752 22.9462724,34.608913 C19.117949,34.6932826 15.6883887,32.2542326 14.5115816,28.610292 C13.3347745,24.9663514 14.6899301,20.9820821 17.8444631,18.811345 C20.9989961,16.640608 25.2044616,16.7984326 28.1874219,19.1995002 L32.4648063,15.6259892 C28.2340432,11.6588752 22.017785,10.6590998 16.7564733,13.099581 C11.4951616,15.5400623 8.24352247,20.9315613 8.53966056,26.7237674 C8.83579864,32.5159736 12.6203476,37.5477334 18.1031235,39.4389018 C23.5858995,41.3300702 29.6677797,39.7015279 33.4718867,35.3236152 C33.3527697,35.1611828 30.5372761,30.9379425 27.7109538,33.1578509" id="Path" fill="#647692"></path>
            </g>
        </g>
    </g>
</svg>