<svg width="28" height="28" viewBox="0 0 28 28" fill="none" xmlns="http://www.w3.org/2000/svg">
<path d="M6.67246 25.3545L25.39 6.63692C26.0788 5.94811 26.0043 4.75552 25.2236 3.97487C24.443 3.19422 23.2504 3.11969 22.5616 3.80849L3.84403 22.526C3.15522 23.2148 3.22976 24.4074 4.01041 25.1881C4.79105 25.9687 5.98365 26.0433 6.67246 25.3545Z" fill="black"/>
<path d="M3.67245 6.59528L22.39 25.3128C23.0788 26.0016 24.2714 25.9271 25.052 25.1464C25.8327 24.3658 25.9072 23.1732 25.2184 22.4844L6.50088 3.76686C5.81207 3.07805 4.61948 3.15259 3.83883 3.93323C3.05818 4.71388 2.98365 5.90648 3.67245 6.59528Z" fill="black"/>
</svg>
