<svg width="28" height="28" viewBox="0 0 28 28" fill="none" xmlns="http://www.w3.org/2000/svg">
<path d="M26.6274 23.6274L5.41421 2.41421C4.63357 1.63357 3.36643 1.63357 2.58579 2.41421C1.80514 3.19486 1.80514 4.46199 2.58579 5.24264L23.799 26.4558C24.5796 27.2365 25.8468 27.2365 26.6274 26.4558C27.4081 25.6752 27.4081 24.4081 26.6274 23.6274Z" fill="black"/>
<path d="M5.37258 26.6274L26.5858 5.41421C27.3664 4.63357 27.3664 3.36643 26.5858 2.58579C25.8051 1.80514 24.538 1.80514 23.7574 2.58579L2.54415 23.799C1.76351 24.5796 1.76351 25.8468 2.54415 26.6274C3.3248 27.4081 4.59194 27.4081 5.37258 26.6274Z" fill="black"/>
</svg>
