<svg viewBox="0 0 132.53485 21.75" x="0" y="0" version="1.1" fill="currentColor" width="132.53485" height="21.75" xmlns="http://www.w3.org/2000/svg">
<path d="M 6.374,2.182 A 0.813,0.813 0 0 0 7.187,1.369 v -2.742 a 0.813,0.813 0 0 0 -1.626,0 v 2.745 a 0.813,0.813 0 0 0 0.813,0.81 z" fill="currentColor" id="path1" />
<path d="m 17.544,2.182 a 0.813,0.813 0 0 0 0.813,-0.813 v -2.742 a 0.813,0.813 0 0 0 -1.626,0 v 2.745 a 0.813,0.813 0 0 0 0.813,0.81 z" fill="currentColor" id="path2" />
<path d="M 21.875,0 H 19.5 v 1.417 a 2,2 0 0 1 -4,0 V 0 H 8.3750002 V 1.417 A 2.0000001,2.0000001 0 0 1 4.375,1.417 V 0 H 2 A 2,2 0 0 0 3.1269031e-8,2 V 19.75 A 2,2 0 0 0 2,21.75 h 19.875 a 2,2 0 0 0 2,-2 V 2 a 2,2 0 0 0 -2,-2 z m -9.838,17.947 a 6.329,6.329 0 1 1 6.329,-6.329 6.329,6.329 0 0 1 -6.329,6.329 z" fill="currentColor" id="path3" />
<path d="m 13.43,11.682 a 2.756,2.756 0 0 0 -0.528,-0.379 l -0.491,-0.268 c -0.143,-0.071 -0.268,-0.139 -0.374,-0.2 a 1.712,1.712 0 0 1 -0.255,-0.178 0.67,0.67 0 0 1 -0.145,-0.175 0.423,0.423 0 0 1 -0.046,-0.206 c 0,-0.209 0.068,-0.486 0.667,-0.486 a 2.471,2.471 0 0 1 0.594,0.072 4.013,4.013 0 0 1 0.63,0.225 l 0.112,0.051 0.25,-1.135 -0.069,-0.035 A 3.339,3.339 0 0 0 13.216,8.749 2.95,2.95 0 0 0 12.806,8.659 L 12.72,8.647 V 7.531 h -1.3 v 1.194 l -0.071,0.021 a 1.734,1.734 0 0 0 -0.791,0.483 1.546,1.546 0 0 0 -0.375,1.093 1.794,1.794 0 0 0 0.1,0.626 1.538,1.538 0 0 0 0.3,0.5 2.357,2.357 0 0 0 0.485,0.406 5.341,5.341 0 0 0 0.661,0.358 3.6,3.6 0 0 1 0.68,0.412 0.543,0.543 0 0 1 0.2,0.446 0.476,0.476 0 0 1 -0.207,0.435 1.024,1.024 0 0 1 -0.576,0.151 3.268,3.268 0 0 1 -0.733,-0.078 3.071,3.071 0 0 1 -0.624,-0.219 l -0.111,-0.055 -0.264,1.131 0.073,0.034 a 3.647,3.647 0 0 0 0.585,0.209 5,5 0 0 0 0.492,0.107 l 0.083,0.014 v 1.116 h 1.3 v -1.19 l 0.068,-0.022 a 2.03,2.03 0 0 0 0.918,-0.606 1.742,1.742 0 0 0 0.4,-1.162 1.482,1.482 0 0 0 -0.17,-0.722 2.062,2.062 0 0 0 -0.413,-0.531 z" fill="currentColor" id="path4" />
<path d="m 39.959709,15.322784 q -1.078125,2.332032 -3.257812,2.332032 -0.914063,0 -1.570313,-0.386719 -0.667969,-0.328125 -1.078125,-0.855469 -0.503906,-0.550781 -0.667969,-1.441406 -0.1875,-0.890625 -0.1875,-3.410156 0,-2.5195316 0.1875,-3.4335941 0.164063,-0.8671875 0.667969,-1.4179687 0.410156,-0.5273438 1.078125,-0.8789063 0.65625,-0.3398437 1.570313,-0.3632812 1.242187,0.023437 2.109375,0.7148437 0.832031,0.7265625 1.148437,1.7578125 h 2.742188 Q 42.29174,5.7954407 40.733147,4.3423157 39.174553,2.9009094 36.701897,2.8774719 q -2.015625,0.023437 -3.363282,0.9609375 -1.371093,0.9257813 -1.992187,2.109375 -0.386719,0.6210938 -0.574219,1.6289063 -0.175781,1.0078125 -0.175781,3.9843753 0,2.929687 0.175781,3.960937 0.09375,0.550781 0.234375,0.914063 0.152344,0.351562 0.339844,0.738281 0.621094,1.183594 1.992187,2.085937 1.347657,0.9375 3.363282,0.984375 2.226562,0 3.855468,-1.265625 1.582032,-1.277343 2.144532,-3.65625 z m 4.253906,-1.007812 q 0.02344,2.695312 1.78125,4.277344 1.722657,1.628906 4.289063,1.652343 2.613281,-0.02344 4.324219,-1.652343 1.699218,-1.582032 1.746093,-4.277344 V 3.0180969 H 53.764397 V 14.033722 q -0.02344,1.746094 -0.984375,2.660156 -0.984375,0.960938 -2.496094,0.960938 -1.511719,0 -2.472656,-0.960938 -0.984375,-0.914062 -1.007813,-2.660156 V 3.0180969 h -2.589844 z m 15.433594,5.789062 h 2.589844 V 9.4516907 h 0.04687 l 3.574219,8.2031253 h 2.15625 l 3.574218,-8.2031253 h 0.05859 V 20.104034 h 2.589844 V 3.0180969 H 71.787834 L 66.983147,14.150909 v 0 L 62.084709,3.0180969 h -2.4375 z m 17.871094,-5.789062 q 0.02344,2.695312 1.78125,4.277344 1.722656,1.628906 4.289062,1.652343 2.613282,-0.02344 4.324219,-1.652343 1.699219,-1.582032 1.746094,-4.277344 V 3.0180969 H 87.069084 V 14.033722 q -0.02344,1.746094 -0.984375,2.660156 -0.984375,0.960938 -2.496094,0.960938 -1.511718,0 -2.472656,-0.960938 -0.984375,-0.914062 -1.007812,-2.660156 V 3.0180969 h -2.589844 z m 15.433594,5.789062 H 103.86205 V 17.654816 H 95.54174 V 3.0180969 h -2.589843 z m 13.031253,-5.789062 q 0.0234,2.695312 1.78125,4.277344 1.72265,1.628906 4.28906,1.652343 2.61328,-0.02344 4.32422,-1.652343 1.69922,-1.582032 1.74609,-4.277344 V 3.0180969 h -2.58984 V 14.033722 q -0.0234,1.746094 -0.98438,2.660156 -0.98437,0.960938 -2.49609,0.960938 -1.51172,0 -2.47266,-0.960938 -0.98437,-0.914062 -1.00781,-2.660156 V 3.0180969 h -2.58984 z m 15.64453,1.640625 -1.69922,1.945312 q 2.73047,2.34375 6.52734,2.34375 5.8711,-0.07031 6,-4.96875 0,-1.816406 -1.13672,-3.1875 -1.14843,-1.394531 -3.55078,-1.722656 -1.21875,-0.152344 -1.92187,-0.269531 -1.26563,-0.2343751 -1.83985,-0.8437501 -0.57421,-0.5976562 -0.57421,-1.3359375 0.0234,-1.2304687 0.85546,-1.8515625 0.79688,-0.5976562 1.99219,-0.5976562 2.3086,0.046875 4.23047,1.3125 v 0 l 1.44141,-2.1328125 q -2.35547,-1.6992188 -5.54297,-1.7695313 -2.64844,0.023437 -4.08985,1.3828125 -1.48828,1.3710938 -1.48828,3.609375 0,1.8632813 1.1836,3.1640626 1.14843,1.265625 3.35156,1.628906 1.23047,0.175781 2.26172,0.316406 2.25,0.386719 2.22656,2.296875 -0.0469,2.332032 -3.375,2.378907 -2.8125,-0.02344 -4.85156,-1.699219 z" id="text4" aria-label="CUMULUS" />
</svg>